<?xml version="1.0" encoding="UTF-8"?>
<svg version="1.1" viewBox="0 0 2048 1490" width="728" height="530" xmlns="http://www.w3.org/2000/svg">
<path transform="translate(0)" d="m0 0h2048v1490h-2048z" fill="#FDFEFD"/>
<path transform="translate(938,489)" d="m0 0 20 9 34 16 39 19 28 13 33 16 23 11 27 13 6 3 15 86 10 54 11 61 7 42 11 59 8 45 3 14 1 11 2 1 1-8 18-83 24-112 14-66 8-36 1-2 6 1 64 30 33 16 28 13 74 35 6 3v653l-6-1-17-8-58-29-46-22-11-6-1-17v-367h-2v7l-11 50-12 53-16 72-11 49-11 50-14 61-2 7-9-3-114-57-2-9-8-44-14-79-17-96-20-110-9-51-4-23-1-8-1 2v384l-3 1-47-24-86-43-2-2z" fill="#FEBD19"/>
<path transform="translate(1424,63)" d="m0 0 19 9 21 11 19 9 15 8 100 50 15 8 70 35 19 10 20 10 22 12 26 14 27 16 18 11 18 12 14 10 14 12 10 11 11 18 7 16 6 21 4 24 1 12v18l-4 16-9 20-9 14-8 11-11 14-10 11-7 8-31 31-8 7-11 10-11 9-13 11-10 8-11 9-19 14-24 16-23 13-29 14-23 9-25 8-30 7-32 5-23 2h-44l-31-3-34-6-32-8-24-8-21-9-21-10-19-10-41-21-33-17-19-10-28-14-19-10-32-16-19-10-34-17-19-10-38-19-19-10-26-13-5-4 15-13 14-12 13-11 15-13 11-9 15-13 13-11 14-12 39-33 10-8 6 1 76 38 19 10 86 43 19 10 112 56 19 10 16 8 20 9 18 6 15 3 11 1h17l20-3 17-5 15-7 16-9 14-11 12-11 9-11 7-14 2-9v-10l-4-12-7-11-11-11-17-12-26-14-24-12-19-10-17-9-54-27-19-10-26-13-19-10-15-8-16-8-92-47-31-16v-3l8-7 10-9 8-7 14-12 11-10 8-7 10-9 8-7 10-9 11-9 15-14 11-9 15-14 11-9z" fill="#942646"/>
<path transform="translate(1731,639)" d="m0 0h2v474l45-23 19-10 29-15 33-17 19-10 33-17 19-10 20-10 19-10 66-34 3-1 1 82v97l-27 14-22 12-20 10-22 12-33 17-28 15-33 17-22 12-35 18-22 12-35 18-22 12-20 10-22 12-37 19-22 12-20 10-22 12-52 27-7 4h-3v-657l22-12 64-33 19-10 35-18 19-10 27-14 29-15z" fill="#442D7F"/>
<path transform="translate(14,760)" d="m0 0h39l4 30 3 25v9h2l1-17 4-41 2-6h39v145h-27v-70l-1-16-8 79-2 7h-19l-9-79v-5h-2v84h-27v-144z" fill="#482266"/>
<path transform="translate(197,993)" d="m0 0h28l4 9 15 51 1 2v-60l4-2h25l1 1v144h-31l-3-9-12-43-2-10h-2l1 16-1 46h-29v-144z" fill="#482266"/>
<path transform="translate(249,760)" d="m0 0h28l18 1 13 4 7 8 3 6 1 5 1 22v39l-1 39-2 8-4 6-5 4-10 3h-50v-144z" fill="#482266"/>
<path transform="translate(688,522)" d="m0 0h42l14 3 6 4 5 6 3 7 1 10v87l-2 14-4 6-4 4-9 3-29 1h-22l-1-1z" fill="#472266"/>
<path transform="translate(335,990)" d="m0 0 14 1 12 4 9 7 6 9 3 12v24h-34l-2-28-2-3-6 1-1 4v90l2 4h8l1-24v-7l-7-3 1-21h40v78h-22l-3-8h-2l-2 4-5 4-8 3h-10l-9-3-7-4-7-8-4-9-2-12v-71l1-15 3-10 6-8 8-6 11-4z" fill="#482266"/>
<path transform="translate(177,757)" d="m0 0 11 1 10 4 8 7 6 12 2 15v71l-2 17-6 12-9 8-7 3-5 1h-14l-12-4-8-7-6-12-2-10v-84l3-14 6-9 7-6 9-4z" fill="#482266"/>
<path transform="translate(406,993)" d="m0 0h29l1 1 1 115 1 6h6l1-5 1-116 1-1h26l6 1 1 32v32l-1 54-3 10-5 8-7 6-9 4-5 1h-15l-9-2-10-5-7-7-4-8-2-9v-116z" fill="#472266"/>
<path transform="translate(623,991)" d="m0 0h22l11 4 8 6 6 7 4 13 1 25-1 1h-33l-1-1-1-27-2-3-5 1-1 1-1 7v80l2 10h7l1-2 2-30h-6l-1-1v-22h39l1 1v77h-22l-3-8-5 5-7 5-3 1h-12l-11-4-10-9-5-11-2-13v-73l2-16 6-12 8-7 8-4z" fill="#482266"/>
<path transform="translate(292,522)" d="m0 0h26l3 8 13 52h1l1-60h25v144l-1 1h-16l-10-1-5-18-9-38-1-4-1 60h-25l-1-4z" fill="#482266"/>
<path transform="translate(588,760)" d="m0 0h21l3 6 14 55 1-60 1-1h24l1 13v42l-1 90h-26l-3-9-12-49-1-3v52l-1 9h-25v-144z" fill="#482266"/>
<path transform="translate(189,522)" d="m0 0h30l1 8v51l1 61 1 2 5-1 1-20v-100l1-1h30v117l-3 12-6 9-6 5-10 4h-18l-11-4-8-7-5-7-3-12z" fill="#472266"/>
<path transform="translate(516,993)" d="m0 0h44l7 57 10 81v7h-31l-1-6-1-19-11-1-1 22-1 4h-31v-10l9-83 5-45z" fill="#482266"/>
<path transform="translate(120,991)" d="m0 0h43l3 20 15 122v3h-32l-1-25h-11l-2 25h-32l1-13 11-101 3-27z" fill="#482266"/>
<path transform="translate(720,757)" d="m0 0 12 1 10 4 10 9 4 8 2 10v25h-29l-1-1-1-22-1-7-5-1-2 3v93l1 3 4 1 3-3 1-11v-18l-5-2v-21l10-1h25l1 31-1 47h-19l-2-9-3 3-5 6-7 3h-10l-10-4-8-8-5-11-2-14v-71l1-14 3-11 6-8 9-7 6-2z" fill="#482266"/>
<path transform="translate(697,993)" d="m0 0h62v29l-24 1v26l22 1v28h-22v30l26 1v29h-64z" fill="#472266"/>
<path transform="translate(354,760)" d="m0 0h61l1 1v28h-25v28h23v27l-1 1h-10l-12-1v32h27v29h-64z" fill="#482266"/>
<path transform="translate(449,522)" d="m0 0h62v29h-24l-1 27h23v19l-1 9h-22v60h-37z" fill="#4A2265"/>
<path transform="translate(17,993)" d="m0 0h38l2 1v115h25v29h-65l-1-17v-127z" fill="#482266"/>
<path transform="translate(439,761)" d="m0 0h39l1 116 5-1h19v28l-1 1h-63z" fill="#472266"/>
<path transform="translate(604,522)" d="m0 0h51v29h-20v27h19v28h-19l1 31h21l1 3-1 27h-52l-1-1z" fill="#482266"/>
<path transform="translate(1984,824)" d="m0 0h14l10 3 10 6 7 7 6 12 1 3v19l-4 10-6 8-9 8-10 4-5 1h-14l-12-4-9-6-7-8-5-10-2-9 1-13 4-10 7-9 7-6 8-4z" fill="#FDFEFD"/>
<path transform="translate(519,760)" d="m0 0h19l11 1v144h-31v-144z" fill="#4A2265"/>
<path transform="translate(540,522)" d="m0 0h30l1 6v138l-1 1h-13l-17-1z" fill="#482266"/>
<path transform="translate(395,522)" d="m0 0h30v144l-5 1-25-1z" fill="#472266"/>
<path transform="translate(1984,824)" d="m0 0h14l10 3 10 6 7 7 6 12 1 3v19l-4 10-6 8-9 8-10 4-5 1h-14l-12-4-9-6-7-8-5-10-2-9 1-13 4-10 7-9 7-6 8-4zm-1 8-9 4-8 7-6 12-1 3v13l4 10 9 10 7 4 7 2h11l11-4 9-8 4-8 2-9-1-13-4-9-7-8-8-5-3-1z" fill="#902647"/>
<path transform="translate(841,1084)" d="m0 0h8l3 5 12 35 1 4 3-8 11-31 3-5h8l1 7 2 34v15h-6l-3-47-10 29-6 16-2 2-4-1-4-10-11-33-3 43-1 1h-5l-1-3 3-47z" fill="#4C2265"/>
<path transform="translate(1731,639)" d="m0 0h2v474h-1l-1-8-2-95-1-149 1-121 1-21 1-75-1-4z" fill="#482266"/>
<path transform="translate(1981,844)" d="m0 0h17l7 3 3 3 1 8-5 5v4l4 7 2 10-1 1h-8l-3-8-3-6-1-1-9-1-1 16h-8v-40z" fill="#952746"/>
<path transform="translate(176,782)" d="m0 0 5 1 2 2v95l-2 3-5 1-2-2-1-8v-81l1-9z" fill="#FDFEFD"/>
<path transform="translate(718,547)" d="m0 0h6l4 3v86l-3 5-6 1-1-1z" fill="#FDFEFD"/>
<path transform="translate(279,785)" d="m0 0 6 1 3 3 1 5v72l-1 10-3 4-5 1-1-1-1-93z" fill="#FDFEFD"/>
<path transform="translate(791,1084)" d="m0 0h41v6l-17 1v49h-7l-1-49-16-1z" fill="#482266"/>
<path transform="translate(538,1029)" d="m0 0h1l1 5 3 40v12l-1 1-9-1v-11l4-40z" fill="#FDFEFD"/>
<path transform="translate(141,1028)" d="m0 0 2 1 4 48v7l-1 1h-9l-1-5z" fill="#FDFEFD"/>
<path transform="translate(2010,837)" d="m0 0 5 2 3 4v2h2l4 9 2 10v8l-4 11-6 7-10 6-3-1 10-7 5-6 3-8 1-13-3-12-6-8z" fill="#512262"/>
<path transform="translate(1985,850)" d="m0 0h10l4 3v7l-6 3h-8l-1-1v-10z" fill="#FDFEFD"/>
<path transform="translate(1984,824)" d="m0 0h14l9 3-3 1-4-1h-16l-9 3-9 7h-2l-2 4-5 7-2 5h-2l-2 3 1-7 7-11 9-8 8-4z" fill="#522261"/>
<path transform="translate(1731,639)" d="m0 0h2v64l-1 21-2-4 1-76-1-4z" fill="#532261"/>
<path transform="translate(1965,840)" d="m0 0 1 3-6 15v13l4 10v3l-5-5-3-8v-14l4-9z" fill="#502262"/>
<path transform="translate(1991,829)" d="m0 0 10 1 4 2v2l-5-1h-17l-9 4-3-1 3-3 10-3z" fill="#58235F"/>
<path transform="translate(1951,873)" d="m0 0 10 15 5 5v3l-4-2-8-10-3-7z" fill="#552261"/>
<path transform="translate(1536,1397)" d="m0 0 2 1-22 12-3-1 2-4 2 2 16-9z" fill="#512262"/>
<path transform="translate(2026,883)" d="m0 0 1 3-8 9h-2l2-5 5-5z" fill="#4F2263"/>
<path transform="translate(841,1084)" d="m0 0h5l-1 8-3-1z" fill="#482872"/>
</svg>
